# xmcd
#
# Track frame offsets:
#	150
#	11295
#	22300
#	34930
#	49072
#	62175
#	74510
#	91427
#	103842
#	118225
#
# Disc length: 1762 seconds
#
# Revision: 0
# Processed by: cddbd v1.4PL0 Copyright (c) Steve Scherf et al.
# Submitted via: dBpowerAMP V4.0
#
DISCID=9006e00a
DTITLE=Criglen Mark - The Fireman
DYEAR=1900
DGENRE=Country
TTITLE0=The Fireman
TTITLE1=Nothin´But the Walls
TTITLE2=The Progress of man
TTITLE3=The Wall
TTITLE4=Dacing to the beat of your heart
TTITLE5=How come the whole band knows your name
TTITLE6=I stand corrected
TTITLE7=Ain´t no phones in Oklahoma
TTITLE8=The truth
TTITLE9=First Time out
EXTD=
EXTT0=
EXTT1=
EXTT2=
EXTT3=
EXTT4=
EXTT5=
EXTT6=
EXTT7=
EXTT8=
EXTT9=
PLAYORDER=
